<?xml version="1.0" encoding="UTF-8"?>
<svg width="46px" height="46px" viewBox="0 0 46 46" version="1.1" xmlns="http://www.w3.org/2000/svg" xmlns:xlink="http://www.w3.org/1999/xlink">
    <title>激光</title>
    <g id="页面-1" stroke="none" stroke-width="1" fill="none" fill-rule="evenodd">
        <g id="首页" transform="translate(-76.000000, -513.000000)" fill="#38B0E0" fill-rule="nonzero" stroke="#BFC6D4">
            <g id="激光" transform="translate(77.000000, 514.000000)">
                <path d="M42.1666885,23.8333496 L32.8166776,23.8333496 C31.7166764,23.8333496 30.9833407,23.100014 30.9833407,22.0000127 C30.9833407,20.9000114 31.7166764,20.1666758 32.8166776,20.1666758 L42.1666885,20.1666758 C43.2666898,20.1666758 44.0000254,20.9000114 44.0000254,22.0000127 C44.0000254,23.100014 43.2666898,23.8333496 42.1666885,23.8333496 Z M22.0000127,13.0166847 C20.9000114,13.0166847 20.1666758,12.2833491 20.1666758,11.1833478 L20.1666758,1.8333369 C20.1666758,0.733335619 20.9000114,-2.00087478e-15 22.0000127,-2.00087478e-15 C23.100014,-2.00087478e-15 23.8333496,0.733335619 23.8333496,1.8333369 L23.8333496,11.1833478 C23.8333496,12.2833491 23.100014,13.0166847 22.0000127,13.0166847 L22.0000127,13.0166847 Z M11.1833478,23.8333496 L1.8333369,23.8333496 C0.733335619,23.8333496 -4.45334348e-16,23.100014 -4.45334348e-16,22.0000127 C-4.45334348e-16,20.9000114 0.733335619,20.1666758 1.8333369,20.1666758 L11.1833478,20.1666758 C12.2833491,20.1666758 13.0166847,20.9000114 13.0166847,22.0000127 C13.0166847,23.100014 12.2833491,23.8333496 11.1833478,23.8333496 Z M22.0000127,44.0000254 C20.9000114,44.0000254 20.1666758,43.2666898 20.1666758,42.1666885 L20.1666758,32.8166776 C20.1666758,31.7166764 20.9000114,30.9833407 22.0000127,30.9833407 C23.100014,30.9833407 23.8333496,31.7166764 23.8333496,32.8166776 L23.8333496,42.1666885 C23.8333496,43.2666898 23.100014,44.0000254 22.0000127,44.0000254 L22.0000127,44.0000254 Z M29.5166738,16.3166455 C28.9666732,16.3166455 28.6000075,16.1333119 28.2333375,15.7666449 C27.5000019,15.0333093 27.5000019,13.933308 28.2333375,13.1999767 L32.266677,9.16663723 C33.0000126,8.43330161 34.1000139,8.43330161 34.8333452,9.16663723 C35.5666808,9.89997285 35.5666808,10.9999741 34.8333452,11.7333055 L30.8000058,15.7666449 C30.4333388,16.1333119 30.0666701,16.3166455 29.5166695,16.3166455 L29.5166738,16.3166455 Z M14.4833087,16.3166455 C13.933308,16.3166455 13.5666423,16.1333119 13.1999724,15.7666449 L9.16663293,11.7333055 C8.43329731,10.9999698 8.43329731,9.89996855 9.16663293,9.16663723 C9.89996855,8.43330161 10.9999698,8.43330161 11.7333012,9.16663723 L15.7666406,13.1999767 C16.4999762,13.9333123 16.4999762,15.0333136 15.7666406,15.7666449 C15.3999737,16.1333119 14.8499743,16.3166455 14.4833044,16.3166455 L14.4833087,16.3166455 Z M10.4499692,35.3833201 C9.89996855,35.3833201 9.53330289,35.1999864 9.16663293,34.8333194 C8.43329731,34.0999838 8.43329731,32.9999825 9.16663293,32.2666512 L13.1999724,28.2333118 C13.933308,27.4999761 15.0333093,27.4999761 15.7666406,28.2333118 C16.4999762,28.9666474 16.4999762,30.0666487 15.7666406,30.79998 L11.7333012,34.8333194 C11.3666342,35.1999864 10.8166349,35.3833201 10.4499649,35.3833201 L10.4499692,35.3833201 Z M33.5499961,35.3833201 C32.9999954,35.3833201 32.6333298,35.1999864 32.2666598,34.8333194 L28.2333204,30.79998 C27.4999847,30.0666444 27.4999847,28.9666431 28.2333204,28.2333118 C28.966656,27.4999761 30.0666573,27.4999761 30.7999886,28.2333118 L34.833328,32.2666512 C35.5666637,32.9999868 35.5666637,34.0999881 34.833328,34.8333194 C34.4666611,35.1999864 34.0999924,35.3833201 33.5499918,35.3833201 L33.5499961,35.3833201 Z M18.6999788,21.9999568 L18.6999788,21.9999564 C18.6999788,23.8224996 20.1774395,25.2999603 21.9999826,25.2999603 C23.8225258,25.2999603 25.2999865,23.8224996 25.2999865,21.9999564 C25.2999865,21.9999564 25.2999865,21.9999563 25.2999865,21.9999563 L25.2999865,21.9999563 C25.2999865,20.1774131 23.8225258,18.6999524 21.9999826,18.6999524 C20.1774395,18.6999524 18.6999788,20.1774131 18.6999788,21.9999563 L18.6999788,21.9999568 Z" id="形状"></path>
            </g>
        </g>
    </g>
</svg>