<?xml version="1.0" encoding="UTF-8"?>
<svg width="44px" height="44px" viewBox="0 0 44 44" version="1.1" xmlns="http://www.w3.org/2000/svg" xmlns:xlink="http://www.w3.org/1999/xlink">
    <title>艺术</title>
    <g id="页面-1" stroke="none" stroke-width="1" fill="none" fill-rule="evenodd">
        <g id="首页" transform="translate(-78.000000, -826.000000)" fill="#38B0E0" fill-rule="nonzero">
            <g id="编组-8备份-2" transform="translate(71.000000, 826.000000)">
                <g id="艺术" transform="translate(7.000000, 0.000000)">
                    <path d="M16.4768915,25.5577688 C16.4112468,27.5271148 14.7701235,29.0807119 12.8007775,29.0369482 C10.8970749,28.9931849 9.38724145,27.4614714 9.32159802,25.5577688 C9.03713683,23.6321864 10.7001402,21.9910619 12.6257226,21.9910619 C14.8357669,21.9910619 16.4768915,23.6321821 16.4768915,25.5577688 L16.4768915,25.5577688 Z M14.5513092,18.4243464 C12.5819631,18.3805831 11.0064863,16.8051058 10.9846023,14.8576395 C10.9846023,12.9320572 12.6257226,11.0064706 14.5513092,11.0064706 C16.4987755,11.0502339 18.0742523,12.6257111 18.1180161,14.5731775 C18.1398977,16.7832218 16.4768958,18.4243464 14.5513092,18.4243464 L14.5513092,18.4243464 Z M29.1244785,11.0064706 C29.0807152,12.9539369 27.5052379,14.5294137 25.5577716,14.5731775 C23.6321893,14.8576387 21.9910647,13.1946352 21.9910647,11.0064706 C21.9910647,8.81830593 23.632185,7.4397637 25.5577716,7.4397637 C27.5052379,7.48352699 29.0807148,9.05900425 29.1244785,11.0064706 Z" id="形状"></path>
                    <path d="M7.15532167,40.109024 C15.6672734,40.9405261 12.647598,31.88153 20.3280561,31.88153 L23.6321807,34.6167348 C24.7262609,44.5072502 12.0786868,46.9798468 7.15532167,40.1090068 L7.15532167,40.109024 Z M32.9537505,26.9362938 C35.710835,22.8225468 43.6538841,9.08086678 43.6538841,9.08086678 C43.9164638,8.46818325 43.6757657,7.76796798 43.08496,7.43974651 C42.6692089,7.15528532 42.1221667,7.15528532 41.7064177,7.43974651 C41.7064177,7.43974651 29.6277591,17.8772977 26.0391768,21.1595125 C23.3039721,23.9165969 23.3039721,25.0106814 22.2098919,29.3870064 L25.2295587,31.8596288 C29.6496303,30.5248503 30.7656159,30.2403883 32.9537591,26.9362637 L32.9537505,26.9362938 Z M9.89050493,35.7108235 C2.23191789,29.124437 1.35668641,17.5928142 7.9430386,9.93427011 C7.9430386,9.91238847 7.96492025,9.91238847 7.96492021,9.89050682 C11.5316271,6.03934218 16.4768676,3.56670259 21.6846862,3.56670259 C28.8181085,3.56670259 33.5007624,7.13340947 33.5007624,9.89050682 C34.5948426,8.79642664 35.6889271,7.9649245 36.5204292,7.13342236 C34.8793089,3.28225773 29.1025534,0 21.6846776,0 C9.71541756,0.0218816466 0,9.71546052 0,21.7065917 L0,22.2755158 C0.0218816466,27.417678 1.85993888,32.3848283 5.20781856,36.2797782 C6.58636079,37.1112803 8.51194311,36.8268182 9.89047245,35.7108541 L9.89050493,35.7108235 Z M33.238204,32.4285787 C35.1637863,35.9952856 30.7655816,38.4679295 26.6518174,39.8464545 C26.3673562,41.2249968 25.5577372,42.5816593 24.179195,43.9602015 C33.785214,42.8661213 40.656054,35.9952899 35.7108178,29.4089033 C35.1418937,30.5029835 34.3322756,31.3344856 33.2381954,32.4285701 L33.238204,32.4285787 Z" id="形状"></path>
                </g>
            </g>
        </g>
    </g>
</svg>