<?xml version="1.0" encoding="UTF-8"?>
<svg width="44px" height="44px" viewBox="0 0 44 44" version="1.1" xmlns="http://www.w3.org/2000/svg" xmlns:xlink="http://www.w3.org/1999/xlink">
    <title>媒介工单</title>
    <g id="页面-1" stroke="none" stroke-width="1" fill="none" fill-rule="evenodd">
        <g id="首页" transform="translate(-77.000000, -670.000000)" fill="#38B0E0" fill-rule="nonzero">
            <g id="媒介工单" transform="translate(77.000000, 670.000000)">
                <path d="M14.1430878,7.11645533 C14.6648206,3.02754959 18.0969422,-0.0619156971 22.1670865,0.000942192797 C26.4132369,0.0669429772 29.8673593,3.54298429 30.0150788,7.90217895 L30.0119359,7.89275027 L30.0370796,7.90217895 L30.0370796,7.99646579 C36.2947299,11.2273613 40.2517273,17.8022966 40.2705851,25.0026679 L40.2705851,26.1781104 L40.3334444,26.2441112 C43.3255505,28.2241348 44.6833129,31.9956082 43.6649911,35.4967926 C42.6498122,38.9979771 39.5005578,41.3897198 35.9427174,41.3582909 L35.9427177,41.3582909 C34.7514,41.3519938 33.5781201,41.066753 32.516882,40.5254238 C33.5854913,39.7397002 34.5755264,38.8408324 35.4587006,37.8413919 L35.9427177,37.8413919 L35.9427177,37.8413919 C37.1781744,37.8318597 38.3572099,37.3228487 39.2114049,36.4302323 C40.0788642,35.5345074 40.5628814,34.3213501 40.5565954,33.0579065 L40.5565954,33.0579029 C40.547639,32.0277259 40.2180839,31.0259038 39.6137048,30.1915831 C39.9657173,28.8809961 40.1888681,27.5358373 40.2705853,26.1781069 L40.2674423,26.2189645 L40.2674421,26.2189644 C39.2724667,25.5621534 38.1383609,25.1457494 36.9547533,25.0026642 L36.9547533,24.9335205 L36.9547536,24.9334578 C36.9492785,26.071932 36.8228545,27.2066004 36.5776107,28.3183552 L36.5776107,28.3183552 C36.3661302,28.3073247 36.1542185,28.3073246 35.942736,28.3183548 C34.7106923,28.3183548 33.5289362,28.8243608 32.6583339,29.7232286 L32.6583343,29.7232283 C30.9726178,31.4772433 30.8554342,34.2115026 32.3848955,36.1033041 L32.3848959,36.1033037 C31.5863609,36.9126826 30.694902,37.6247839 29.7290875,38.2247575 C30.4928288,39.1707688 31.4388623,39.9470637 32.5169005,40.4813558 L32.516902,40.4813547 C26.1998299,45.1320037 17.6038111,45.1764462 11.2390052,40.5913585 L11.25472,40.60393 C11.2295763,40.6102158 11.2232903,40.60393 11.2170044,40.60393 C7.48001484,42.3136646 3.08928783,40.8396471 1.0557872,37.1907466 C-0.983999359,33.5355603 0.0123216583,28.8872194 3.35015422,26.4483332 L3.30300969,26.4829051 L3.22129251,24.9586012 C3.23698712,17.7802793 7.40770692,11.1802009 13.6088034,7.93359087 L14.0896776,7.69158799 L14.0896776,7.65387326 L14.1430878,7.11645533 Z M29.2701953,11.4190779 L29.1099039,11.7553676 C27.7175688,14.4488282 24.9517566,16.3439936 21.9753654,16.3628509 C18.7915383,16.2842786 15.8465768,14.1439674 14.6396769,11.1142171 L14.6868214,11.2179326 L14.6396769,11.2430758 C9.9157952,13.8202493 6.88283059,18.7577365 6.62196421,24.2326588 L6.6031064,24.9806676 L6.81368529,24.9492387 C7.12798214,24.9146669 7.57742663,24.8863808 8.16201878,24.8738092 C11.2987013,24.8266658 13.9765105,26.4955428 15.2934143,29.4215776 C16.6134611,32.3444694 15.9534377,35.9965128 13.8916504,38.4259703 L14.0142261,38.2719685 L14.1148011,38.3348263 L14.1147998,38.3348255 C18.6834974,41.1338039 24.4132763,41.2253259 29.069044,38.573687 L29.7039236,38.1933967 L29.7039235,38.1933966 C28.5654224,36.7406329 27.9478144,34.9476165 27.9501471,33.1019075 C27.9501471,28.5667108 31.5268452,24.8895242 35.942716,24.8895242 L35.9427163,24.8895242 C36.2796543,24.8660859 36.6178161,24.8660859 36.9547522,24.8895242 C36.9233225,19.3486012 34.0317914,14.2351119 29.3550543,11.4693647 L29.2701942,11.4190784 L29.2701953,11.4190779 Z M10.8429709,29.3210049 L10.8429709,29.321005 C9.76726051,28.4479432 8.3490107,28.119771 6.99912046,28.4315658 L7.03683608,28.42528 C5.95879788,28.66414 4.99390655,29.2864331 4.32445426,30.1790152 L4.08244568,30.5341622 L4.09816053,30.5970201 L4.09816049,30.5970202 C3.73352753,31.1926822 3.5039381,31.8610531 3.42556523,32.5550435 L3.39413555,33.0799068 C3.39413555,35.7010808 5.45592289,37.8256775 8.00801332,37.841392 L8.16201878,37.841392 C9.41292024,37.7879628 10.5883905,37.2096702 11.4118482,36.2385158 L11.4181342,36.2448016 C12.1473028,35.3836485 12.5936044,34.0699186 12.5967474,32.9447624 L12.5967474,32.9447682 C12.5766809,31.5369724 11.9345878,30.2102388 10.8429759,29.3210108 L10.8429709,29.3210049 Z M21.9753654,3.39212535 L21.9753651,3.39212536 C20.0890536,3.43655287 18.4192976,4.62352124 17.7575014,6.39044671 L17.7575016,6.39044621 C17.5348394,6.95020063 17.4237993,7.54809211 17.4306328,8.15046712 C17.4306328,8.76961734 17.5532086,9.38248177 17.7795023,9.95448856 C18.4866702,11.7082237 20.2498756,12.8585231 22.0916551,12.8836662 C23.9365776,12.9088094 25.5080619,11.7993676 26.2592314,10.0676328 L26.4383806,9.60877017 C26.595529,9.14047889 26.6741032,8.64704445 26.6741032,8.15046712 L26.6741032,8.15046915 C26.6661727,7.5953947 26.5630543,7.04579085 26.3692358,6.5255927 L26.2120874,6.12958799 L26.2120873,6.12958788 C25.4743197,4.45201392 23.8079619,3.37533684 21.9753658,3.39212677 L21.9753654,3.39212535 Z M36.58074,28.3184216 C37.781354,28.4912808 38.8688211,29.2078607 39.6105617,30.1915867 C39.9657171,28.8809997 40.1888679,27.5358409 40.2705851,26.1781104 L40.2705851,26.1781103 C39.2749661,25.5197328 38.1397111,25.1022288 36.9547531,24.9586672 C36.9547531,26.1121095 36.8290343,27.1932652 36.5775968,28.3215643 L36.58074,28.3184216 Z M32.3220177,36.043656 L32.3220179,36.043656 C31.5017964,36.891722 30.5875756,37.6435367 29.5970642,38.2845399 C30.3482337,39.2462656 31.4325578,40.0005602 32.5200249,40.5254236 C33.5886342,39.7459858 34.7389607,38.847118 35.6252778,37.8539633 L35.6252778,37.8539633 C34.3364002,37.6852802 33.1576741,37.0392956 32.3220177,36.043656 L32.3220177,36.043656 Z" id="形状"></path>
            </g>
        </g>
    </g>
</svg>