<?xml version="1.0" encoding="UTF-8"?>
<svg width="46px" height="47px" viewBox="0 0 46 47" version="1.1" xmlns="http://www.w3.org/2000/svg" xmlns:xlink="http://www.w3.org/1999/xlink">
    <title>积极情绪</title>
    <g id="页面-1" stroke="none" stroke-width="1" fill="none" fill-rule="evenodd">
        <g id="首页" transform="translate(-106.000000, -368.000000)" fill="#BFC6D4" fill-rule="nonzero">
            <g id="一级菜单" transform="translate(40.000000, 200.000000)">
                <g id="积极情绪" transform="translate(66.000000, 168.000000)">
                    <path d="M44.1814183,14.3399878 C41.8536476,8.71230786 37.4774386,4.23842004 31.9373444,1.83664868 C26.2343061,-0.612216228 19.7631036,-0.612216228 14.0367876,1.83664868 C11.2900182,3.01398758 8.82258127,4.73290238 6.72758763,6.87565917 C2.39793412,11.3024534 -0.0229474104,17.283335 0.000163969495,23.4996844 C-0.0229474104,32.9183956 5.51714687,41.4187825 14.0600653,45.1627202 C16.8999456,46.3871527 19.9260475,47.0229157 23.0219826,46.9993689 C29.1440195,46.9993689 34.986724,44.5269572 39.2698221,40.1237097 L39.2698224,40.1237094 C41.3819061,37.9863196 43.0585738,35.4502258 44.2046963,32.6593807 C46.6023001,26.796233 46.6023001,20.2031352 44.1814186,14.3399875 L44.1814183,14.3399878 Z M32.0770106,12.2678713 C34.5211698,12.2678713 36.5230526,14.316441 36.5230526,16.8359463 C36.5230526,19.3554515 34.5211698,21.4040212 32.0770106,21.4040212 C29.6095737,21.4040212 27.6076908,19.3554515 27.6076908,16.8359463 C27.6076908,14.316441 29.6328514,12.2678713 32.0770106,12.2678713 L32.0770106,12.2678713 Z M35.3591673,27.9735723 C35.3591673,34.8727782 29.819073,40.4769114 22.9987049,40.4769114 C16.1783367,40.4769114 10.6382424,34.8727782 10.6382424,27.9735723 M14.8515074,12.2678713 C17.2956666,12.2678713 19.2975494,14.316441 19.2975494,16.8359463 C19.2975494,19.3554515 17.2956666,21.4040212 14.8515074,21.4040212 C12.3840704,21.4040212 10.3821876,19.3554515 10.3821876,16.8359463 C10.3821876,14.316441 12.4073481,12.2678713 14.8515074,12.2678713 Z" id="形状"></path>
                </g>
            </g>
        </g>
    </g>
</svg>